<svg width="36" height="36" viewBox="0 0 36 36" fill="none" xmlns="http://www.w3.org/2000/svg">
<path d="M18 1.125C10.8562 1.125 4.78124 5.56875 2.30624 11.8125H33.6937C31.2187 5.56875 25.1437 1.125 18 1.125Z" fill="#3399FF"/>
<path d="M18 34.875C25.1437 34.875 31.2187 30.4313 33.6937 24.1875H2.30624C4.78124 30.4313 10.8562 34.875 18 34.875Z" fill="#00D800"/>
<path d="M34.875 18C34.875 16.2563 34.5938 14.5125 34.0875 12.9375H1.9125C1.40625 14.5125 1.125 16.2563 1.125 18C1.125 19.7438 1.40625 21.4875 1.9125 23.0625H34.0875C34.5938 21.4875 34.875 19.7438 34.875 18Z" fill="white"/>
<path d="M33.6938 11.8125C33.75 11.9813 33.8625 12.2062 33.9188 12.375C33.975 12.5437 34.0313 12.7688 34.0875 12.9375" fill="#FF0000"/>
<path d="M33.9188 12.375C33.8625 12.2062 33.75 11.9813 33.6938 11.8125H2.30626C2.25001 11.9813 2.13751 12.2062 2.08126 12.375C2.02501 12.5437 1.96876 12.7688 1.91251 12.9375H34.0875C34.0313 12.7688 33.975 12.5437 33.9188 12.375Z" fill="#FF0000"/>
<path d="M2.08126 23.625C2.13751 23.7937 2.25001 24.0188 2.30626 24.1875H33.6938C33.75 24.0188 33.8625 23.7937 33.9188 23.625C33.975 23.4562 34.0313 23.2313 34.0875 23.0625H1.91251C1.96876 23.2313 2.02501 23.4562 2.08126 23.625Z" fill="#FF0000"/>
<path d="M11.475 9.73125C10.125 9.73125 9.05625 8.6625 9.05625 7.3125C9.05625 5.9625 10.125 4.89375 11.475 4.89375C11.8125 4.89375 12.0938 4.95 12.375 5.0625C11.925 4.725 11.3063 4.5 10.6875 4.5C9.1125 4.5 7.875 5.7375 7.875 7.3125C7.875 8.8875 9.1125 10.125 10.6875 10.125C11.3063 10.125 11.925 9.9 12.375 9.5625C12.0938 9.675 11.8125 9.73125 11.475 9.73125Z" fill="white"/>
<path d="M13.8938 8.54999L14.1188 9.16874H14.7375L14.2313 9.50624L14.4 10.125L13.8938 9.73124L13.3875 10.125L13.6125 9.50624L13.1063 9.16874H13.725L13.8938 8.54999Z" fill="white"/>
<path d="M16.3125 8.54999L16.4812 9.16874H17.1562L16.65 9.50624L16.8187 10.125L16.3125 9.73124L15.8063 10.125L15.975 9.50624L15.4688 9.16874H16.0875L16.3125 8.54999Z" fill="white"/>
<path d="M18.7313 8.54999L18.9 9.16874H19.5188L19.0125 9.50624L19.2375 10.125L18.7313 9.73124L18.1688 10.125L18.3938 9.50624L17.8875 9.16874H18.5063L18.7313 8.54999Z" fill="white"/>
<path d="M21.0938 8.54999L21.3188 9.16874H21.9375L21.4312 9.50624L21.6 10.125L21.0938 9.73124L20.5875 10.125L20.7563 9.50624L20.25 9.16874H20.925L21.0938 8.54999Z" fill="white"/>
<path d="M23.5125 8.54999L23.6813 9.16874H24.3563L23.7938 9.50624L24.0188 10.125L23.5125 9.73124L23.0063 10.125L23.175 9.50624L22.6688 9.16874H23.2875L23.5125 8.54999Z" fill="white"/>
<path d="M16.3125 6.52499L16.4812 7.14374H17.1562L16.65 7.48124L16.8187 8.09999L16.3125 7.70624L15.8063 8.09999L15.975 7.48124L15.4688 7.14374H16.0875L16.3125 6.52499Z" fill="white"/>
<path d="M18.7313 6.52499L18.9 7.14374H19.5188L19.0125 7.48124L19.2375 8.09999L18.7313 7.70624L18.1688 8.09999L18.3938 7.48124L17.8875 7.14374H18.5063L18.7313 6.52499Z" fill="white"/>
<path d="M21.0938 6.52499L21.3188 7.14374H21.9375L21.4312 7.48124L21.6 8.09999L21.0938 7.70624L20.5875 8.09999L20.7563 7.48124L20.25 7.14374H20.925L21.0938 6.52499Z" fill="white"/>
<path d="M23.5125 6.52499L23.6813 7.14374H24.3563L23.7938 7.48124L24.0188 8.09999L23.5125 7.70624L23.0063 8.09999L23.175 7.48124L22.6688 7.14374H23.2875L23.5125 6.52499Z" fill="white"/>
<path d="M18.7313 4.5L18.9 5.11875H19.5188L19.0125 5.45625L19.2375 6.075L18.7313 5.68125L18.1688 6.075L18.3938 5.45625L17.8875 5.11875H18.5063L18.7313 4.5Z" fill="white"/>
<path d="M21.0938 4.5L21.3188 5.11875H21.9375L21.4312 5.45625L21.6 6.075L21.0938 5.68125L20.5875 6.075L20.7563 5.45625L20.25 5.11875H20.925L21.0938 4.5Z" fill="white"/>
<path d="M23.5125 4.5L23.6813 5.11875H24.3563L23.7938 5.45625L24.0188 6.075L23.5125 5.68125L23.0063 6.075L23.175 5.45625L22.6688 5.11875H23.2875L23.5125 4.5Z" fill="white"/>
</svg>
