<svg width="30" height="30" viewBox="0 0 30 30" fill="none" xmlns="http://www.w3.org/2000/svg">
<path d="M28.5 16.185C28.264 18.7383 27.3058 21.1716 25.7374 23.2002C24.169 25.2288 22.0552 26.7687 19.6436 27.6398C17.2319 28.5109 14.622 28.6772 12.1193 28.1191C9.61653 27.5611 7.3245 26.3018 5.51134 24.4887C3.69819 22.6755 2.43891 20.3835 1.88087 17.8807C1.32282 15.378 1.48908 12.7681 2.36019 10.3564C3.23131 7.94476 4.77125 5.83105 6.79982 4.26263C8.8284 2.69421 11.2617 1.73596 13.815 1.5C12.3201 3.5224 11.6008 6.01417 11.7878 8.52212C11.9748 11.0301 13.0558 13.3876 14.8341 15.1659C16.6124 16.9442 18.9699 18.0252 21.4779 18.2122C23.9858 18.3992 26.4776 17.6799 28.5 16.185V16.185Z" stroke="#346DFF" stroke-width="2" stroke-linecap="round" stroke-linejoin="round"/>
</svg>
