<svg width="169" height="42" viewBox="0 0 169 42" fill="none" xmlns="http://www.w3.org/2000/svg">
<path d="M0 33.7171H12.1428C15.6948 33.7171 18.5034 32.8386 20.4446 31.1235C22.3445 29.4502 23.377 27.0657 23.377 24.1793C23.377 21.7948 22.6336 19.7032 21.2293 18.1135C20.6098 17.4024 19.9076 16.8167 19.0816 16.3566C19.6185 15.8546 20.1141 15.3108 20.5272 14.6414C21.4358 13.261 21.9314 11.5876 21.9314 9.78884C21.9314 8.36653 21.6423 7.02789 21.1054 5.8984C20.5685 4.76892 19.7424 3.8486 18.7099 3.09562C16.8513 1.75697 14.2492 1.08765 11.0277 1.08765H0V33.7171ZM11.8124 27.4841H6.48443V19.996H11.2755C13.1341 19.996 14.621 20.4143 15.5296 21.1255C16.3143 21.753 16.7274 22.6733 16.7274 23.8865C16.7274 25.0996 16.3143 25.9781 15.5709 26.5637C14.7036 27.1912 13.4232 27.4841 11.8124 27.4841ZM11.069 13.8884H6.48443V7.32072L10.6559 7.27888C12.3493 7.27888 13.671 7.61354 14.4144 8.24103C14.6623 8.4502 15.3644 8.99402 15.3644 10.5C15.3644 11.7131 14.9927 12.5498 14.2079 13.0936C13.4645 13.6374 12.3906 13.8884 11.069 13.8884Z" fill="#346DFF"/>
<path d="M29.4112 33.7171H35.6478V0L29.4112 2.09164V33.7171Z" fill="#346DFF"/>
<path d="M52.4774 34.0099C55.2446 34.0099 57.8467 32.9223 59.7879 30.9562C61.7291 28.99 62.8029 26.3546 62.8029 23.5518V10.4163H56.6076V23.5518C56.6076 25.8526 54.749 27.735 52.4774 27.735C50.2058 27.735 48.3472 25.8526 48.3472 23.5518V10.4163H42.1519V23.5518C42.1519 26.3546 43.2257 28.99 45.1669 30.9562C47.1081 32.9223 49.7102 34.0099 52.4774 34.0099Z" fill="#346DFF"/>
<path d="M79.1517 33.8845C80.7625 33.8845 82.332 33.5498 83.8188 32.8805C85.2644 32.253 86.5448 31.3327 87.6187 30.2032L83.2406 26.0199C82.1668 27.1913 80.7212 27.8188 79.1517 27.8188C77.1279 27.8188 75.3519 26.7311 74.3607 25.1415H90.7576V22.0877C90.7576 18.9502 89.5599 15.9801 87.3708 13.763C85.1818 11.5458 82.2494 10.2909 79.1517 10.2909C76.0128 10.2909 73.1216 11.5458 70.8913 13.763C68.7023 15.9801 67.5045 18.9502 67.5045 22.0877C67.5045 25.2251 68.7023 28.1952 70.8913 30.4124C73.1216 32.6295 76.0128 33.8845 79.1517 33.8845ZM74.3607 19.0757C75.3519 17.4443 77.1279 16.3566 79.1517 16.3566C81.1342 16.3566 82.9102 17.4443 83.9428 19.0757H74.3607Z" fill="#346DFF"/>
<path d="M106.042 33.9681C108.975 33.9681 111.701 33.1315 113.724 31.5418C114.84 30.6634 115.707 29.6175 116.326 28.4044C116.987 27.1494 117.318 25.6853 117.318 24.1375C117.318 21.2928 116.326 19.1175 114.344 17.4442C112.651 16.0638 110.42 15.1853 108.066 14.2231C107.818 14.1395 107.57 14.014 107.281 13.9303C105.629 13.261 104.06 12.6753 103.068 11.9642C102.366 11.4622 101.912 10.9602 101.953 9.99802C101.953 7.86455 104.018 7.06973 105.753 7.06973C107.612 7.06973 109.842 8.07372 111.866 9.74702L113.022 10.7092L116.987 5.52192L115.913 4.6016C112.857 2.13348 109.346 0.79483 105.753 0.79483C102.944 0.79483 100.342 1.75698 98.4013 3.43029C96.4188 5.18726 95.3449 7.57172 95.3449 10.1235C95.3449 11.6295 95.634 12.9681 96.2535 14.1395C96.7905 15.2271 97.5752 16.1474 98.6078 17.0259C100.425 18.4482 102.697 19.3685 105.01 20.247C105.175 20.3307 105.34 20.3725 105.464 20.4144C107.157 21.0837 108.644 21.6275 109.553 22.3387C110.338 22.9243 110.668 23.5518 110.668 24.5558C110.668 25.5179 110.296 26.2291 109.594 26.7729C108.768 27.3586 107.529 27.6514 106.083 27.6514C104.844 27.6514 103.523 27.3586 102.366 26.8148C101.086 26.1873 99.9707 25.3088 99.1034 24.2211L100.487 28.9064L93.7341 27.9861L94.6015 28.9064C97.6165 32.1693 101.664 33.9681 106.042 33.9681Z" fill="#346DFF"/>
<path d="M137.201 33.7171H144.511L136.045 20.4562L145.007 10.4163H137.077L129.271 19.2849V0H123.034V33.7171H129.271V27.7769L131.749 25.0578L137.201 33.7171Z" fill="#346DFF"/>
<path d="M149.877 42H156.444L169 10.4163H162.392L157.188 23.6354L151.653 10.4163H144.838L154.049 31.5L149.877 42Z" fill="#346DFF"/>
</svg>
